<?xml version="1.0" standalone="no"?>
<!DOCTYPE svg PUBLIC "-//W3C//DTD SVG 20010904//EN"
 "http://www.w3.org/TR/2001/REC-SVG-20010904/DTD/svg10.dtd">
<svg version="1.0" xmlns="http://www.w3.org/2000/svg"
 width="380.000000pt" height="380.000000pt" viewBox="0 0 380.000000 380.000000"
 preserveAspectRatio="xMidYMid meet">

<g transform="translate(0.000000,380.000000) scale(0.100000,-0.100000)"
fill="#000000" stroke="none">
<path d="M2336 3694 c-10 -27 -6 -57 18 -129 14 -38 23 -71 22 -73 -4 -3 -92
103 -106 127 -9 14 -11 14 -19 1 -13 -19 -5 -54 25 -109 13 -24 18 -39 11 -34
-6 5 -33 26 -58 46 -25 20 -49 37 -53 37 -15 0 -3 -31 29 -79 l36 -52 -50 26
c-28 14 -55 25 -61 25 -23 0 -7 -36 35 -77 50 -47 48 -50 -15 -28 -23 8 -46
15 -51 15 -20 0 -7 -21 29 -45 37 -26 37 -26 7 -19 -59 13 -81 30 -122 94 -67
103 -73 110 -88 110 -34 0 -14 -68 48 -160 l30 -45 -34 30 c-19 16 -60 54 -91
84 -45 43 -59 51 -63 39 -9 -24 10 -56 79 -127 l61 -64 -50 28 c-27 15 -72 43
-99 62 -50 36 -78 34 -58 -4 12 -21 82 -88 122 -115 24 -17 23 -17 -15 -2 -22
9 -57 25 -77 35 -44 22 -68 24 -68 6 0 -19 37 -50 95 -81 l50 -27 -67 5 c-70
5 -93 -5 -59 -26 14 -9 17 -16 10 -25 -13 -15 -3 -33 19 -34 12 0 11 -3 -5 -9
-32 -13 -28 -28 10 -38 30 -8 30 -9 10 -16 -29 -9 -29 -24 -1 -35 13 -4 17
-10 11 -14 -12 -8 5 -57 20 -57 4 0 7 -9 7 -20 0 -11 7 -20 15 -20 11 0 14 -7
9 -25 -5 -19 -2 -25 11 -25 13 0 16 -6 12 -22 -11 -39 77 -284 105 -296 5 -2
8 -10 8 -18 0 -8 4 -14 8 -14 4 0 13 -14 19 -30 10 -26 9 -31 -9 -41 -11 -6
-47 -34 -81 -62 -34 -29 -96 -68 -137 -87 -80 -36 -140 -69 -140 -76 0 -10
276 5 307 16 27 10 46 7 144 -24 134 -43 211 -46 359 -16 209 43 378 125 549
267 156 130 247 172 386 179 272 15 289 16 270 31 -18 12 -18 13 4 13 19 0 21
3 12 14 -7 8 -27 18 -44 22 -18 3 -50 21 -72 39 -80 64 -122 71 -194 30 -55
-32 -183 -77 -309 -110 -104 -27 -195 -31 -252 -11 -31 11 -37 20 -58 82 -25
74 -29 121 -18 224 9 74 19 52 -138 295 -98 150 -160 273 -185 364 -11 39 -22
75 -26 81 -9 15 -22 12 -29 -6z m1271 -1020 c-3 -3 -12 -4 -19 -1 -8 3 -5 6 6
6 11 1 17 -2 13 -5z"/>
<path d="M1220 2624 c-17 -44 -11 -85 29 -204 21 -63 37 -116 36 -118 -4 -4
-147 167 -171 203 -24 37 -37 20 -32 -41 3 -38 16 -72 46 -123 22 -39 37 -69
33 -67 -4 3 -47 37 -96 76 -49 38 -92 70 -97 70 -29 0 22 -102 85 -169 21 -23
35 -41 32 -41 -3 0 -46 21 -96 46 -100 50 -122 49 -99 -5 12 -30 65 -84 125
-128 40 -30 25 -29 -80 7 -49 16 -90 28 -93 25 -11 -10 11 -37 54 -67 25 -18
54 -38 63 -45 9 -6 -11 -3 -43 8 -33 10 -69 19 -81 19 -28 0 -127 121 -175
216 -40 76 -51 87 -82 82 -19 -2 -23 -9 -21 -36 2 -46 51 -144 115 -228 l52
-69 -51 42 c-28 24 -93 83 -146 133 -52 49 -100 90 -107 90 -21 0 -4 -65 29
-113 17 -25 70 -82 118 -127 84 -79 86 -82 38 -54 -94 53 -180 106 -228 140
-71 51 -97 41 -63 -25 20 -38 127 -135 189 -172 29 -17 41 -27 27 -23 -37 10
-203 84 -215 95 -5 5 -22 9 -37 9 -21 0 -28 -5 -28 -19 0 -30 56 -78 145 -122
l80 -41 -107 6 c-132 6 -146 -5 -68 -53 27 -16 30 -21 15 -21 -11 0 -26 -4
-34 -9 -21 -13 1 -38 42 -47 l32 -7 -42 -14 c-24 -8 -43 -19 -43 -23 0 -16 37
-30 77 -30 l38 -1 -38 -20 c-54 -28 -46 -58 16 -59 20 -1 20 -2 5 -11 -22 -12
-23 -38 -3 -45 10 -4 13 -14 9 -29 -4 -17 -1 -25 14 -29 14 -5 18 -13 15 -30
-4 -20 0 -24 28 -30 25 -5 30 -9 21 -18 -19 -19 -14 -56 7 -63 16 -5 18 -12
14 -45 -4 -25 -2 -40 5 -40 5 0 8 -9 5 -20 -3 -11 0 -20 6 -20 6 0 11 -13 11
-30 0 -16 4 -30 9 -30 4 0 6 -11 3 -25 -2 -14 0 -25 6 -25 6 0 8 -9 5 -20 -3
-12 1 -22 11 -26 9 -3 16 -17 16 -30 0 -13 5 -24 10 -24 6 0 10 -9 10 -19 0
-10 6 -21 14 -24 9 -4 12 -14 9 -26 -3 -14 0 -23 11 -27 9 -3 16 -17 16 -30 0
-15 6 -24 15 -24 9 0 15 -9 15 -25 0 -14 4 -25 10 -25 5 0 17 -17 26 -38 10
-20 19 -40 21 -43 1 -4 -40 -39 -92 -78 -52 -39 -95 -76 -95 -81 0 -13 42 -13
77 1 15 7 43 11 60 10 18 -1 46 5 62 14 17 8 39 15 50 15 36 0 96 32 120 64
44 58 97 82 197 89 121 9 215 29 356 77 79 27 134 40 171 40 69 0 148 24 187
56 35 30 40 69 11 79 -33 10 -154 139 -194 206 -21 35 -47 96 -58 134 -30 102
-36 116 -69 154 -17 18 -30 35 -30 37 0 3 14 17 32 33 27 24 32 36 35 87 3 35
-2 79 -11 108 -10 34 -12 56 -5 73 11 30 48 62 71 63 34 0 27 22 -42 132 -97
155 -204 368 -229 458 -12 41 -29 99 -37 128 -17 57 -38 68 -54 26z"/>
<path d="M2760 1190 c-146 -76 -557 -200 -664 -200 -56 0 -36 -13 64 -44 69
-20 93 -33 124 -65 34 -35 38 -44 33 -74 l-5 -35 92 63 c116 78 196 108 374
141 12 3 22 11 22 20 0 8 6 25 13 37 6 12 12 47 12 77 0 69 20 77 67 24 18
-20 57 -54 86 -76 34 -25 51 -45 48 -54 -6 -16 19 -19 29 -4 22 35 20 158 -3
183 -31 35 -89 57 -144 57 -43 -1 -70 -10 -148 -50z m186 -30 c0 -12 -4 -16
-9 -11 -5 5 -6 14 -3 20 10 15 12 14 12 -9z m42 -3 c2 -9 -1 -17 -7 -17 -6 0
-7 7 -4 17 4 11 3 14 -5 9 -7 -4 -12 -2 -12 4 0 18 25 6 28 -13z"/>
<path d="M3120 1095 c0 -9 9 -15 21 -15 18 0 19 2 9 15 -7 8 -16 15 -21 15 -5
0 -9 -7 -9 -15z"/>
<path d="M370 451 c-117 -53 -227 -109 -234 -120 -15 -23 339 -20 428 4 53 15
114 48 109 61 -2 7 8 19 23 27 l27 14 -39 6 c-22 4 -50 4 -63 0 -16 -4 -28 -1
-36 11 -10 13 -18 14 -39 6 -45 -17 -84 -13 -88 10 -3 18 -9 17 -88 -19z"/>
</g>
</svg>
