<?xml version="1.0" standalone="no"?>
<!DOCTYPE svg PUBLIC "-//W3C//DTD SVG 20010904//EN"
 "http://www.w3.org/TR/2001/REC-SVG-20010904/DTD/svg10.dtd">
<svg version="1.0" xmlns="http://www.w3.org/2000/svg"
 width="360.000000pt" height="360.000000pt" viewBox="0 0 360.000000 360.000000"
 preserveAspectRatio="xMidYMid meet">

<g transform="translate(0.000000,360.000000) scale(0.100000,-0.100000)"
fill="#000000" stroke="none">
<path d="M972 2995 c-55 -17 -104 -55 -133 -102 -13 -21 -36 -49 -51 -61 -16
-13 -26 -27 -23 -31 2 -4 -1 -8 -8 -8 -7 0 -50 -23 -97 -51 -47 -29 -91 -55
-99 -60 -9 -5 -12 -15 -8 -26 6 -16 14 -17 55 -11 26 5 100 9 165 10 l118 1
40 73 c81 150 117 190 178 198 54 7 59 -8 26 -82 -27 -62 -55 -160 -55 -194 0
-14 11 -25 33 -34 44 -19 64 -45 76 -97 18 -78 -17 -193 -83 -274 -38 -48
-106 -148 -106 -157 0 -4 27 -12 61 -18 33 -7 94 -30 135 -51 l74 -38 67 29
c38 15 63 29 56 29 -21 0 -43 31 -43 58 0 15 16 90 36 167 40 159 53 305 35
399 -31 164 -138 283 -300 330 -65 19 -92 19 -149 1z m-12 -95 c0 -5 -5 -10
-11 -10 -5 0 -7 5 -4 10 3 6 8 10 11 10 2 0 4 -4 4 -10z m-129 -177 c13 -16
12 -17 -3 -4 -10 7 -18 15 -18 17 0 8 8 3 21 -13z"/>
<path d="M1730 2100 c-173 -17 -246 -44 -336 -123 -117 -103 -138 -240 -60
-395 58 -116 205 -256 357 -341 219 -122 530 -139 704 -37 46 27 115 101 115
123 0 10 35 13 164 13 90 0 173 3 183 7 17 6 17 5 -1 -15 -11 -12 -17 -24 -15
-26 2 -2 39 -8 82 -15 144 -21 337 -10 337 19 0 5 -34 26 -75 46 -41 20 -73
39 -71 41 2 3 65 -16 138 -41 134 -46 172 -54 182 -37 9 13 -87 97 -192 169
-50 34 -126 98 -170 141 -81 80 -165 144 -188 144 -7 0 -11 4 -8 8 12 20 -280
172 -441 229 -237 83 -471 113 -705 90z m255 -418 c-3 -3 -11 0 -18 7 -9 10
-8 11 6 5 10 -3 15 -9 12 -12z"/>
<path d="M1955 934 c-9 -23 -15 -68 -15 -119 0 -87 -16 -149 -64 -242 -14 -29
-35 -57 -45 -63 -11 -5 -82 -11 -158 -11 -76 -1 -151 -5 -168 -9 l-30 -7 30
-12 30 -13 -38 -20 c-22 -11 -37 -21 -35 -23 2 -3 22 -8 44 -13 l39 -8 -45
-21 -45 -21 55 -1 c75 -1 269 17 359 35 86 16 115 36 107 75 -6 34 12 112 68
283 26 79 46 158 46 183 l0 43 -60 0 c-59 0 -60 0 -75 -36z"/>
</g>
</svg>
